<?xml version="1.0" encoding="UTF-8" standalone="no"?>
<!-- Created with Inkscape (http://www.inkscape.org/) -->

<svg
   xmlns:dc="http://purl.org/dc/elements/1.1/"
   xmlns:cc="http://creativecommons.org/ns#"
   xmlns:rdf="http://www.w3.org/1999/02/22-rdf-syntax-ns#"
   xmlns:svg="http://www.w3.org/2000/svg"
   xmlns="http://www.w3.org/2000/svg"
   xmlns:sodipodi="http://sodipodi.sourceforge.net/DTD/sodipodi-0.dtd"
   xmlns:inkscape="http://www.inkscape.org/namespaces/inkscape"
   width="234.6718mm"
   height="159.63315mm"
   viewBox="0 0 234.6718 159.63315"
   version="1.1"
   id="svg8"
   inkscape:version="0.92.5 (2060ec1f9f, 2020-04-08)"
   sodipodi:docname="logo.svg">
  <defs
     id="defs2" />
  <sodipodi:namedview
     id="base"
     pagecolor="#ffffff"
     bordercolor="#666666"
     borderopacity="1.0"
     inkscape:pageopacity="0.0"
     inkscape:pageshadow="2"
     inkscape:zoom="0.7"
     inkscape:cx="180.05387"
     inkscape:cy="215.68282"
     inkscape:document-units="mm"
     inkscape:current-layer="layer1"
     showgrid="false"
     inkscape:window-width="2560"
     inkscape:window-height="1371"
     inkscape:window-x="4480"
     inkscape:window-y="32"
     inkscape:window-maximized="1"
     fit-margin-top="0"
     fit-margin-left="0"
     fit-margin-right="0"
     fit-margin-bottom="0" />
  <metadata
     id="metadata5">
    <rdf:RDF>
      <cc:Work
         rdf:about="">
        <dc:format>image/svg+xml</dc:format>
        <dc:type
           rdf:resource="http://purl.org/dc/dcmitype/StillImage" />
        <dc:title />
      </cc:Work>
    </rdf:RDF>
  </metadata>
  <g
     inkscape:label="Layer 1"
     inkscape:groupmode="layer"
     id="layer1"
     transform="translate(282.3981,63.227401)">
    <path
       style="fill:#ffffff;stroke:none;stroke-width:0.26458332px;stroke-linecap:butt;stroke-linejoin:miter;stroke-opacity:1;fill-opacity:1"
       d="m -150.29278,65.194285 0.96856,10.45341 -6.08305,18.82794 -0.27167,1.66545 -5.68145,-5.26804 -1.71271,4.16955 -2.2088,-6.66183 12.17792,-17.57589 -1.59458,-1.81901 -22.13523,19.0996 -9.88644,3.4136 -10.91407,-13.81975 2.09068,-26.812687 34.86831,-6.449219 -25.14723,-28.076543 -22.73763,-36.899926 -73.42187,-10.914062 49.91648,-26.611886 36.88811,-5.008184 35.48251,7.642205 11.23298,28.891555 20.17448,24.4857687 33.344588,0.472472 11.681824,-6.567337 20.363468,0.815012 8.976934,-2.102493 5.941314,6.898066 -14.764694,2.51590201 -10.276229,9.26041899 -21.603707,12.5204593 -35.187218,29.706567 -15.79231,9.591141 z"
       id="path880"
       inkscape:connector-curvature="0" />
  </g>
</svg>
